<?xml version="1.0" encoding="UTF-8"?>
<svg id="Ebene_4" data-name="Ebene 4" xmlns="http://www.w3.org/2000/svg" viewBox="0 0 22.5 23.93">
  <defs>
    <style>
      .cls-1 {
        fill: #fff;
      }

      .cls-2 {
        fill: none;
      }
    </style>
  </defs>
  <g>
    <path class="cls-1" d="m2.46,3.38h11.69v-.49c0-.96-.78-1.73-1.73-1.73h-1.53v1.09c0,.46-.38.84-.84.84s-.84-.38-.84-.84v-1.09h-4.28v1.09c0,.46-.38.84-.84.84s-.84-.38-.84-.84v-1.09h-1.53c-.96,0-1.73.78-1.73,1.73v8.81c0,.64.35,1.2.87,1.49V4.97c0-.88.71-1.59,1.59-1.59Z"/>
    <path class="cls-1" d="m10.04,2.87c.34,0,.61-.27.61-.61V.61c0-.34-.27-.61-.61-.61s-.61.27-.61.61v1.64c0,.34.27.61.61.61Z"/>
    <path class="cls-1" d="m4.09,2.87c.34,0,.61-.27.61-.61V.61c0-.34-.27-.61-.61-.61s-.61.27-.61.61v1.64c0,.34.27.61.61.61Z"/>
  </g>
  <g>
    <path class="cls-2" d="m3.31,16.61s.01.06.02.09v-7.63h-.02v7.53Z"/>
    <path class="cls-1" d="m3.31,16.61v-7.53h.02v-.05c0-1.05.85-1.91,1.91-1.91h12.53v-.33c0-1.06-.86-1.92-1.92-1.92h-1.7v1.22c0,.52-.42.93-.93.93s-.93-.42-.93-.93v-1.22h-4.75v1.22c0,.52-.42.93-.93.93s-.93-.42-.93-.93v-1.22h-1.7c-1.06,0-1.92.86-1.92,1.92v9.78c0,.84.54,1.55,1.29,1.81v-1.68s-.02-.06-.02-.09Z"/>
    <path class="cls-1" d="m13.19,6.76c.37,0,.68-.3.68-.68v-1.83c0-.38-.3-.68-.68-.68s-.68.3-.68.68v1.83c0,.38.3.68.68.68Z"/>
    <path class="cls-1" d="m6.58,6.76c.37,0,.68-.3.68-.68v-1.83c0-.38-.3-.68-.68-.68s-.68.3-.68.68v1.83c0,.38.3.68.68.68Z"/>
  </g>
  <g>
    <g>
      <path class="cls-1" d="m20.36,8.78h-1.88v1.35c0,.57-.47,1.04-1.04,1.04s-1.04-.46-1.04-1.04v-1.35h-5.28v1.35c0,.57-.47,1.04-1.04,1.04s-1.04-.46-1.04-1.04v-1.35h-1.88c-1.18,0-2.14.96-2.14,2.14v10.87c0,1.18.96,2.14,2.14,2.14h13.2c1.18,0,2.14-.96,2.14-2.14v-10.87c0-1.18-.96-2.14-2.14-2.14m.72,13.05c0,.39-.32.71-.71.71H7.16c-.39,0-.71-.32-.71-.71v-8.37h14.64v8.37Z"/>
      <path class="cls-1" d="m17.44,7.37c-.4,0-.73.33-.73.73v1.96c0,.4.33.73.73.73s.73-.33.73-.73v-1.96c0-.4-.33-.73-.73-.73Z"/>
      <path class="cls-1" d="m10.04,7.37c-.39,0-.7.33-.7.73v1.96c0,.4.32.73.7.73s.7-.33.7-.73v-1.96c0-.4-.32-.73-.7-.73Z"/>
    </g>
    <rect class="cls-1" x="8.21" y="14.63" width="2.64" height="2.58"/>
    <rect class="cls-1" x="12.39" y="14.63" width="2.64" height="2.58"/>
    <rect class="cls-1" x="16.54" y="14.63" width="2.64" height="2.58"/>
    <rect class="cls-1" x="8.23" y="18.78" width="2.64" height="2.58"/>
    <rect class="cls-1" x="12.41" y="18.78" width="2.64" height="2.58"/>
    <path class="cls-1" d="m18.69,20.85h-1.63v-1.57h1.63v1.57Zm.5-2.07h-2.64v2.58h2.64v-2.58Z"/>
  </g>
</svg>