<?xml version="1.0" encoding="utf-8"?>
<!-- Generator: Adobe Illustrator 16.2.0, SVG Export Plug-In . SVG Version: 6.00 Build 0)  -->
<!DOCTYPE svg PUBLIC "-//W3C//DTD SVG 1.1//EN" "http://www.w3.org/Graphics/SVG/1.1/DTD/svg11.dtd">
<svg version="1.1" xmlns="http://www.w3.org/2000/svg" xmlns:xlink="http://www.w3.org/1999/xlink" x="0px" y="0px"
	 width="155.772px" height="161.466px" viewBox="0 0 155.772 161.466" enable-background="new 0 0 155.772 161.466"
	 xml:space="preserve">
<g id="Ebene_1" display="none">
	<g display="inline">
		<path fill-rule="evenodd" clip-rule="evenodd" fill="#FFFFFF" d="M62.979,161.466c2.096-1.582,4.195-3.16,6.288-4.746
			c9.308-7.051,17.226-15.235,21.016-26.603c0.509-1.526,0.709-3.942-0.134-5.008c-6.839-8.643-10.548-18.571-13.179-29.309
			c-2.064,7.897-4.129,15.794-6.193,23.691c-0.293-0.065-0.586-0.131-0.88-0.196c1.441-11.613,2.883-23.226,4.323-34.839
			c-0.517-0.339-1.034-0.679-1.552-1.018c-5.548,5.591-11.61,10.768-16.53,16.866c-8.25,10.228-10.966,22.349-6.733,34.792
			c3.115,9.155,8.307,17.604,12.573,26.368 M110.927,103.84c-0.515,0.565-1.028,1.131-1.543,1.696
			c-8.49-6.556-16.981-13.11-26.32-20.32c1.256,37.757,24.521,54.291,60.988,49.545c-1.851-8.772-2.89-17.732-5.782-26.047
			c-2.059-5.915-6.467-11.064-10.165-16.316c-0.832-1.183-3.093-1.97-4.664-1.92c-8.692,0.276-17.376,0.867-26.608,1.381
			C101.351,95.7,106.139,99.771,110.927,103.84z M117.589,62.483c0.129,0.256,0.257,0.513,0.386,0.769
			c-10.398,5.716-20.797,11.433-31.825,17.495c33.61,12.809,58.632,1.192,69.623-35.737c-13.466-5.578-27.197-8.344-41.676-4.412
			c-2.467,0.67-3.904,1.82-4.442,5c-0.9,5.319-2.972,10.475-4.878,15.576c-0.917,2.452-2.584,4.624-4.56,8.046
			C106.898,66.629,112.244,64.557,117.589,62.483z M81.517,41.379c0.525,0.018,1.052,0.036,1.578,0.054c0,11.079,0,22.158,0,33.807
			C109.002,57.642,112.671,24.924,81.61,0c-9.728,9.045-17.691,19.205-20.689,32.562c-0.253,1.127-0.214,3.02,0.471,3.551
			c8.327,6.46,13.679,15.117,18.688,25.871c0.395-4.68,0.696-7.794,0.909-10.914C81.21,47.842,81.344,44.609,81.517,41.379z
			 M77,74.454c-1.651-10.237-7.521-21.951-13.872-28.664c-11.724-12.389-37.57-17.016-52.583-9.256
			c-0.904,0.468-1.77,2.465-1.524,3.477c2.779,11.446,7.12,22.182,15.596,30.721c0.926,0.933,3.117,1.705,4.16,1.254
			c9.026-3.908,18.388-4.954,29.562-3.447c-5.652-3.869-10.045-6.878-14.439-9.886c0.143-0.218,0.286-0.436,0.429-0.653
			C54.944,63.346,65.56,68.692,77,74.454z M4.084,112.878c10.806,5.008,21.739,8.112,33.457,7.467
			c1.563-0.086,3.876-1.296,4.43-2.59c3.342-7.809,6.272-15.793,9.193-23.338c-1.683,0.476-4.518,1.276-6.734,1.903
			c8.546-5.564,17.457-11.365,27.14-17.668C40.041,66.635,16.409,78.027,4.084,112.878z"/>
		<path fill-rule="evenodd" clip-rule="evenodd" d="M61.979,161.466c-4.267-8.764-9.458-17.213-12.573-26.368
			c-4.233-12.443-1.517-24.564,6.733-34.792c4.919-6.099,10.982-11.275,16.53-16.866c0.518,0.339,1.035,0.679,1.552,1.018
			c-1.44,11.613-2.882,23.226-4.323,34.839c0.294,0.065,0.587,0.131,0.88,0.196c2.064-7.897,4.129-15.794,6.193-23.691
			c2.631,10.737,6.34,20.666,13.179,29.309c0.843,1.065,0.643,3.481,0.134,5.008c-3.79,11.367-11.708,19.552-21.016,26.603
			c-2.093,1.586-4.192,3.164-6.288,4.746C62.645,161.466,62.312,161.466,61.979,161.466z"/>
		<path fill-rule="evenodd" clip-rule="evenodd" d="M110.927,103.84c-4.788-4.069-9.576-8.14-14.095-11.981
			c9.232-0.514,17.916-1.104,26.608-1.381c1.571-0.05,3.832,0.737,4.664,1.92c3.698,5.252,8.106,10.401,10.165,16.316
			c2.893,8.314,3.932,17.274,5.782,26.047c-36.467,4.746-59.732-11.788-60.988-49.545c9.339,7.21,17.83,13.765,26.32,20.32
			C109.898,104.971,110.412,104.405,110.927,103.84z"/>
		<path fill-rule="evenodd" clip-rule="evenodd" d="M117.589,62.483c-5.345,2.073-10.69,4.146-17.372,6.736
			c1.976-3.422,3.643-5.594,4.56-8.046c1.906-5.102,3.978-10.257,4.878-15.576c0.538-3.18,1.976-4.33,4.442-5
			c14.479-3.932,28.21-1.166,41.676,4.412c-10.991,36.93-36.013,48.546-69.623,35.737c11.028-6.063,21.427-11.779,31.825-17.495
			C117.846,62.996,117.718,62.739,117.589,62.483z"/>
		<path fill-rule="evenodd" clip-rule="evenodd" d="M81.517,41.379c-0.173,3.23-0.307,6.463-0.527,9.69
			c-0.213,3.12-0.515,6.234-0.909,10.914c-5.009-10.754-10.361-19.411-18.688-25.871c-0.685-0.531-0.724-2.424-0.471-3.551
			C63.919,19.205,71.883,9.045,81.61,0c31.061,24.924,27.392,57.642,1.484,75.239c0-11.648,0-22.728,0-33.807
			C82.568,41.415,82.042,41.396,81.517,41.379z"/>
		<path fill-rule="evenodd" clip-rule="evenodd" d="M77,74.454c-11.44-5.762-22.056-11.108-32.671-16.455
			c-0.143,0.218-0.286,0.436-0.429,0.653c4.394,3.008,8.787,6.017,14.439,9.886c-11.174-1.507-20.536-0.461-29.562,3.447
			c-1.042,0.451-3.234-0.321-4.16-1.254C16.141,62.192,11.8,51.457,9.021,40.011c-0.246-1.012,0.62-3.009,1.524-3.477
			c15.013-7.76,40.859-3.133,52.583,9.256C69.479,52.503,75.349,64.217,77,74.454z"/>
		<path fill-rule="evenodd" clip-rule="evenodd" d="M4.084,112.878c12.325-34.851,35.957-46.243,67.485-34.226
			c-9.683,6.303-18.593,12.104-27.14,17.668c2.217-0.627,5.052-1.428,6.734-1.903c-2.921,7.545-5.852,15.529-9.193,23.338
			c-0.554,1.294-2.866,2.504-4.43,2.59C25.824,120.99,14.891,117.886,4.084,112.878z"/>
	</g>
</g>
<g id="Ebene_2" display="none">
	<g display="inline">
		<path fill="none" d="M76.686,51.733c0.904,0.038,1.808,0.075,2.712,0.112c2.816-9.974,6.127-19.844,8.24-29.965
			c1.059-5.071-4.655-9.69-10.002-9.489c-5.583,0.211-10.564,5.302-9.271,10.72C70.671,32.765,73.864,42.204,76.686,51.733z"/>
		<path fill="none" d="M125.955,46.309c4.471-2.858,4.205-9.824,0.521-13.704c-3.819-4.022-11.089-4.466-14.066,0.163
			c-5.481,8.52-10.008,17.655-14.932,26.533c0.658,0.647,1.317,1.294,1.977,1.941C108.32,56.315,117.426,51.763,125.955,46.309z"/>
		<path fill="none" d="M29.472,115.752c-4.307,2.877-3.353,10.111,0.65,13.676c4.144,3.69,11.102,3.481,14.052-1.32
			c5.155-8.389,9.531-17.256,14.233-25.922c-0.608-0.687-1.216-1.372-1.825-2.058C47.504,105.272,38.126,109.971,29.472,115.752z"/>
		<path fill="none" d="M58.499,59.279c-4.92-8.875-9.461-17.992-14.916-26.526c-2.85-4.459-9.868-4.172-13.718-0.487
			c-4.017,3.845-4.451,11.095,0.181,14.067c8.524,5.471,17.661,9.986,26.543,14.9C57.226,60.582,57.862,59.931,58.499,59.279z"/>
		<path fill="none" d="M18.828,71.037c-5.235-0.496-9.534,5.068-9.138,10.408c0.4,5.401,5.208,9.805,10.563,8.982
			c4.411-0.678,8.732-2.084,13.013-3.423c5.301-1.658,10.52-3.579,15.773-5.387c-0.018-0.553-0.036-1.106-0.054-1.659
			C39.127,76.363,29.429,72.043,18.828,71.037z"/>
		<path fill="none" d="M99.021,100.647c-0.468,0.445-0.935,0.891-1.403,1.337c4.526,8.485,8.938,17.035,13.629,25.429
			c2.207,3.947,6.372,5.592,10.242,3.979c2.947-1.227,5.957-4.246,7.18-7.196c1.605-3.878-0.081-8.009-4.002-10.243
			c-6.461-3.683-13.093-7.069-19.68-10.527C103.046,102.407,101.012,101.568,99.021,100.647z"/>
		<path fill="none" d="M136.83,71.092c-10.112,2.121-19.976,5.433-29.941,8.252c0.043,0.902,0.086,1.805,0.129,2.707
			c9.53,2.821,18.971,6.018,28.625,8.317c5.421,1.291,10.5-3.704,10.697-9.294C146.53,75.727,141.901,70.029,136.83,71.092z"/>
		<path fill="none" d="M79.301,109.718c-0.874-0.022-1.748-0.045-2.623-0.066c-2.843,9.809-6.147,19.516-8.341,29.468
			c-1.167,5.293,4.525,10.187,10.063,9.953c5.586-0.234,10.531-5.332,9.23-10.757L79.301,109.718z"/>
		<path fill="none" d="M77.91,61.037c-10.591,0.086-19.837,9.477-19.604,19.91c0.234,10.479,9.113,19.332,19.539,19.479
			c10.499,0.148,19.818-9.084,19.849-19.662C97.724,70.228,88.422,60.952,77.91,61.037z"/>
		<path d="M127.318,63.083c-7.188,2.434-14.47,4.592-22.26,5.889c1.25-0.73,2.475-1.509,3.755-2.184
			c6.617-3.486,13.382-6.714,19.84-10.473c7.917-4.608,11.251-12.178,9.704-20.66c-1.395-7.636-7.629-13.876-15.262-15.275
			c-8.488-1.557-16.047,1.773-20.67,9.681c-3.687,6.307-6.865,12.912-10.274,19.382c-0.747,1.416-1.519,2.819-3.237,3.882
			c0.246-1.13,0.406-2.288,0.754-3.387c1.957-6.178,4.215-12.272,5.896-18.522C99.785,15.728,95.912,8.295,81,2.732c-2,0-4,0-6,0
			C60.099,8.291,56.216,15.708,60.436,31.41c1.967,7.321,4.503,14.49,5.74,22.283c-0.776-1.416-1.571-2.822-2.325-4.25
			c-3.413-6.468-6.589-13.074-10.276-19.381c-4.622-7.908-12.181-11.239-20.668-9.684c-7.634,1.399-13.87,7.64-15.263,15.276
			c-1.549,8.49,1.757,15.964,9.715,20.649c6.151,3.622,12.605,6.732,18.928,10.063c1.553,0.818,3.121,1.61,4.682,2.414
			c-0.15,0.399-0.301,0.8-0.452,1.199c-1.425-0.422-2.857-0.821-4.273-1.271c-5.86-1.86-11.75-3.636-17.565-5.626
			C15.925,58.719,3.99,63.036,0,77.732c0,2,0,4,0,6c3.902,14.552,15.863,19.026,28.688,14.652
			c7.181-2.449,14.468-4.586,22.263-5.842c-1.407,0.778-2.802,1.579-4.223,2.331c-6.463,3.417-13.07,6.588-19.368,10.287
			c-7.962,4.677-11.266,12.155-9.718,20.645c1.394,7.644,7.586,13.841,15.267,15.28c8.43,1.579,16.027-1.778,20.654-9.693
			c3.687-6.307,6.873-12.906,10.287-19.373c0.744-1.41,1.512-2.808,3.341-3.824c-0.349,1.267-0.657,2.546-1.053,3.797
			c-1.905,6.02-4.081,11.966-5.707,18.06c-4.185,15.689-0.326,23.103,14.569,28.681c2,0,4,0,6,0
			c14.897-5.591,18.789-13.037,14.563-28.687c-1.977-7.317-4.504-14.486-5.785-22.268c0.727,1.26,1.494,2.498,2.175,3.782
			c3.58,6.754,6.887,13.669,10.771,20.243c4.506,7.628,12.063,10.819,20.369,9.282c7.654-1.417,13.871-7.639,15.266-15.276
			c1.521-8.338-1.674-15.869-9.288-20.377c-6.429-3.807-13.182-7.063-19.789-10.566c-1.407-0.746-2.808-1.506-3.842-3.314
			c1.6,0.438,3.216,0.822,4.795,1.322c5.703,1.806,11.426,3.556,17.083,5.497c12.731,4.371,24.656,0.083,28.684-14.639c0-2,0-4,0-6
			C151.977,63.084,140.193,58.725,127.318,63.083z M33.266,87.005c-4.281,1.339-8.603,2.745-13.013,3.423
			c-5.355,0.822-10.163-3.581-10.563-8.982c-0.396-5.34,3.903-10.904,9.138-10.408c10.601,1.006,20.299,5.326,30.158,8.922
			c0.018,0.553,0.036,1.106,0.054,1.659C43.785,83.426,38.566,85.347,33.266,87.005z M112.41,32.768
			c2.978-4.629,10.247-4.186,14.066-0.163c3.684,3.88,3.949,10.846-0.521,13.704c-8.529,5.454-17.635,10.007-26.5,14.934
			c-0.659-0.647-1.318-1.294-1.977-1.941C102.402,50.423,106.929,41.287,112.41,32.768z M77.637,12.392
			c5.347-0.201,11.061,4.418,10.002,9.489c-2.113,10.121-5.424,19.991-8.24,29.965c-0.904-0.037-1.809-0.074-2.712-0.112
			c-2.822-9.529-6.015-18.969-8.32-28.622C67.072,17.693,72.054,12.603,77.637,12.392z M30.046,46.333
			c-4.632-2.973-4.198-10.223-0.181-14.067c3.85-3.685,10.869-3.972,13.718,0.487c5.454,8.534,9.995,17.651,14.916,26.526
			c-0.637,0.651-1.273,1.303-1.91,1.954C47.707,56.319,38.57,51.804,30.046,46.333z M44.174,128.107
			c-2.951,4.802-9.909,5.011-14.052,1.32c-4.002-3.564-4.957-10.799-0.65-13.676c8.654-5.781,18.032-10.479,27.111-15.624
			c0.608,0.686,1.216,1.371,1.825,2.058C53.706,110.852,49.33,119.719,44.174,128.107z M78.4,149.072
			c-5.539,0.233-11.23-4.66-10.063-9.953c2.193-9.952,5.498-19.659,8.341-29.468c0.875,0.021,1.749,0.044,2.623,0.066
			c2.824,9.521,6.017,18.954,8.33,28.598C88.932,143.74,83.986,148.838,78.4,149.072z M77.845,100.426
			c-10.425-0.146-19.305-8.999-19.539-19.479c-0.233-10.434,9.013-19.824,19.604-19.91c10.512-0.085,19.813,9.19,19.783,19.727
			C97.663,91.342,88.344,100.574,77.845,100.426z M124.666,113.953c3.921,2.234,5.607,6.365,4.002,10.243
			c-1.223,2.95-4.232,5.97-7.18,7.196c-3.87,1.612-8.035-0.032-10.242-3.979c-4.691-8.394-9.103-16.943-13.629-25.429
			c0.469-0.446,0.936-0.892,1.403-1.337c1.991,0.921,4.025,1.76,5.966,2.778C111.573,106.884,118.205,110.271,124.666,113.953z
			 M135.643,90.368c-9.654-2.3-19.095-5.496-28.625-8.317c-0.043-0.902-0.086-1.805-0.129-2.707
			c9.966-2.819,19.829-6.131,29.941-8.252c5.071-1.063,9.7,4.635,9.51,9.982C146.143,86.664,141.063,91.659,135.643,90.368z"/>
		<path d="M79.301,109.718l8.33,28.598C85.317,128.672,82.125,119.238,79.301,109.718z"/>
	</g>
</g>
<g id="Ebene_3" display="none">
	<g display="inline">
		<path d="M152.25,59.693c-5.221-15.593-18.767-23.485-39.51-22.834c-1.096-8.724-4.321-16.54-10.878-22.765
			c-6.599-6.264-14.485-9.407-23.469-9.478c-7.171-0.056-13.836,2.095-19.676,6.356c-8.792,6.416-13.434,15.291-14.586,25.936
			c-19.108-0.96-32.138,5.41-38.051,19.55c-8.131,19.444-0.607,33.999,15.738,45.095c-11.255,17.62-6.064,39.289,10.285,49.18
			c15.523,9.395,36.384,5.019,46.218-10.021c9.045,14.611,29.277,19.538,44.771,11.022c7.764-4.271,13.199-10.566,15.967-19.058
			c3.606-11.068,1.613-21.377-4.477-31.021C153.613,90.167,156.554,72.546,152.25,59.693z M16.491,63.374
			c4.021-11.325,16.943-17.766,27.837-13.665c1.826,0.688,3.678,2.148,4.785,3.755c5.23,7.598,10.206,15.371,14.91,23.623
			c-3.565-2.157-6.968-4.69-10.761-6.316c-2.017-0.863-5.191-0.958-6.95,0.094c-1.518,0.908-2.785,4.202-2.314,5.941
			c0.521,1.929,2.896,4.155,4.895,4.714c3.894,1.092,8.087,1.111,12.157,1.575c0.021,0.25,0.042,0.5,0.062,0.751
			c-9.645,2.702-19.281,5.439-28.952,8.048c-0.883,0.238-2.034-0.209-2.979-0.56C18.339,87.325,12.538,74.506,16.491,63.374z
			 M70.396,128.179c-3.162,13.604-22.583,21.347-35.653,9.009c-7.832-7.391-9.27-19.486-3.134-28.151
			c1.494-2.112,3.617-4.43,5.933-5.194c9.268-3.055,18.725-5.534,28.112-8.229c0.105,0.242,0.21,0.487,0.316,0.731
			c-3.426,2.569-6.823,5.178-10.288,7.695c-2.745,1.992-4.08,4.737-2.676,7.746c0.802,1.718,2.922,3.396,4.779,3.917
			c3.352,0.943,5.608-1.24,7.035-4.168c2.248-4.609,4.445-9.245,7.108-13.781C71.874,107.949,72.768,117.968,70.396,128.179z
			 M82.146,68.781c-0.247-0.109-0.495-0.218-0.741-0.327c0.9-3.366,1.921-6.706,2.667-10.106c0.649-2.95,1.216-6.293-1.921-8.069
			c-1.727-0.978-4.636-1.561-6.168-0.742c-1.705,0.912-3.493,3.666-3.406,5.534c0.21,4.548,1.483,9.045,2.55,14.759
			c-2.979-4.427-5.386-7.979-7.768-11.551c-2.564-3.846-4.849-7.912-7.715-11.517c-4.18-5.257-3.941-10.674-1.513-16.379
			c4.038-9.49,14.741-15.085,24.54-12.89c10.745,2.409,18.153,11.365,17.713,21.64c-0.082,1.881-0.484,3.941-1.39,5.55
			c-1.678,2.977-3.821,5.693-5.799,8.498C89.524,58.387,85.83,63.582,82.146,68.781z M127.816,127.896
			c-2.801,9.223-11.44,15.562-21.204,15.556c-10.163-0.005-17.408-5.474-20.288-15.485c-0.78-2.709-1.593-5.515-1.685-8.298
			c-0.235-7.257-0.078-14.527,0.748-22.057c1.648,3.513,3.269,7.038,4.961,10.531c0.839,1.733,1.64,3.531,2.761,5.079
			c2.238,3.08,6.35,3.604,9.007,1.341c2.844-2.422,3.121-6.881,0.181-9.442c-3.574-3.114-7.484-5.841-11.248-8.734
			c0.067-0.155,0.136-0.309,0.205-0.466c9.254,2.683,18.602,5.089,27.732,8.137C126.637,106.612,130.717,118.34,127.816,127.896z
			 M129.735,90.198c-2.73,1.393-6.663,1.704-9.689,0.996c-8.512-2.001-16.838-4.786-25.237-7.265
			c0.028-0.293,0.057-0.587,0.086-0.879c4.103-0.401,8.319-0.355,12.262-1.375c2.203-0.569,4.797-2.552,5.631-4.556
			c0.653-1.572-0.525-5.194-1.974-6.032c-1.911-1.104-5.228-1.177-7.322-0.269c-4.055,1.758-7.677,4.513-12.27,7.341
			c0.935-1.6,1.411-2.55,2.006-3.416c4.138-6.02,8.295-12.025,12.457-18.029c5.514-7.954,11.974-10.132,21.057-6.846
			c8.858,3.205,13.919,9.747,14.725,18.999C142.292,78.35,138.241,85.863,129.735,90.198z"/>
	</g>
</g>
<g id="Ebene_4" display="none">
	<g display="inline">
		<path fill-rule="evenodd" clip-rule="evenodd" d="M155.519,73.179c0,1.819,0,3.638,0,5.457c-0.1,0.221-0.251,0.433-0.292,0.665
			c-1.171,6.479-4.714,11.265-10.417,14.455c-5.46,3.056-11.441,4.055-17.602,4.266c-0.702,0.024-1.406,0.003-2.109,0.003
			c0.396,0.729,0.814,1.086,1.247,1.427c3.463,2.727,6.72,5.657,9.291,9.282c3.61,5.089,5.576,10.672,4.517,16.933
			c-1.338,7.904-6.141,13.224-13.483,15.966c-3.381,1.263-5.833,3.026-8.051,5.896c-7.066,9.144-19.298,10.65-28.596,3.812
			c-3.734-2.747-6.426-6.406-8.456-10.529c-1.318-2.677-2.438-5.45-3.725-8.354c-0.259,0.662-0.465,1.157-0.648,1.66
			c-1.857,5.106-4.272,9.88-7.876,14.024c-8.753,10.065-23.834,9.948-32.076-0.56c-2.26-2.881-4.701-4.71-8.16-5.985
			c-12.788-4.714-17.464-19.043-10.351-30.655c2.847-4.648,6.687-8.32,10.919-11.647c0.392-0.308,0.748-0.659,1.43-1.266
			c-1.096,0-1.701,0.013-2.304-0.003c-5.23-0.135-10.333-0.938-15.183-2.994c-5.485-2.325-9.612-6.062-11.845-11.67
			c-0.607-1.525-0.97-3.147-1.445-4.725c0-1.819,0-3.638,0-5.457c0.071-0.068,0.193-0.127,0.205-0.205
			c0.739-4.779,2.959-8.838,5.971-12.543c0.355-0.437,0.382-1.19,0.44-1.808c0.263-2.8,0.147-5.682,0.779-8.393
			c2.298-9.867,11.481-16.412,21.484-15.506c6.071,0.55,11.459,2.98,16.521,6.238c0.983,0.632,1.955,1.281,3.221,2.112
			c-0.161-0.671-0.216-0.959-0.298-1.239c-1.493-5.109-2.584-10.287-2.173-15.645c0.613-7.991,4.038-14.325,11.35-18.077
			c6.157-3.159,12.479-2.682,18.756-0.276c0.965,0.37,1.752,0.363,2.716-0.003c4.456-1.699,9.045-2.515,13.785-1.458
			c8.789,1.958,14.774,8.577,16.079,17.719c0.814,5.71-0.124,11.254-1.667,16.733c-0.178,0.633-0.337,1.272-0.6,2.263
			c1.198-0.788,2.029-1.351,2.875-1.889c4.886-3.111,9.992-5.683,15.856-6.324c8.176-0.894,14.791,1.91,19.561,8.627
			c3.131,4.409,4.025,9.5,3.726,14.82c-0.057,1.012,0.193,1.753,0.782,2.614c1.503,2.193,2.936,4.464,4.107,6.846
			C154.604,69.462,154.956,71.373,155.519,73.179z M95.86,69.908c0.993,2.066,2.118,3.897,2.76,5.885
			c0.642,1.987,0.758,4.139,1.207,6.196c0.089,0.409,0.593,0.95,0.99,1.037c9.385,2.051,18.829,3.621,28.491,2.853
			c3.122-0.248,6.188-0.845,9.02-2.307c4.917-2.538,6.395-7.131,3.941-12.088c-1.241-2.508-3.04-4.525-5.264-6.151
			c-1.095-0.8-1.389-1.573-0.955-2.902c0.869-2.658,1.147-5.388,0.702-8.208c-0.706-4.478-4.017-7.474-8.518-7.439
			c-4.258,0.033-7.898,1.901-11.366,4.101C108.765,56.024,102.193,62.87,95.86,69.908z M78.225,22.022
			c-2.799-1.279-5.218-2.691-7.823-3.513c-6.45-2.034-11.8,1.86-11.87,8.621c-0.028,2.746,0.219,5.565,0.842,8.234
			c2.179,9.329,6.617,17.707,11.427,25.895c0.189,0.322,0.997,0.522,1.434,0.42c3.808-0.885,7.603-0.963,11.376,0.085
			c0.792,0.22,1.169,0.083,1.565-0.611c3.636-6.351,7.061-12.804,9.512-19.721c1.674-4.724,2.946-9.528,2.653-14.626
			c-0.349-6.09-4.646-9.529-10.634-8.579C83.409,18.753,80.68,20.411,78.225,22.022z M60.136,95.831
			c-3.31,1.583-6.57,3.048-9.745,4.68c-6.021,3.095-11.833,6.534-16.831,11.174c-2.308,2.142-4.325,4.521-5.457,7.521
			c-1.454,3.854-0.407,7.347,2.84,9.79c2.873,2.161,6.198,2.867,9.665,2.945c1.359,0.031,1.819,0.589,2.348,1.723
			c0.99,2.124,2.017,4.319,3.481,6.116c4.005,4.916,9.464,5.009,13.782,0.378c1.123-1.204,2.08-2.604,2.91-4.03
			c2.738-4.711,4.271-9.889,5.314-15.18c1.001-5.081,1.684-10.227,2.44-15.354c0.109-0.737,0.546-1.692-0.695-2.153
			C66.167,101.946,62.882,99.43,60.136,95.831z M95.638,95.865c-2.694,3.554-5.999,6.025-9.977,7.644
			c-0.399,0.162-0.784,1.007-0.742,1.497c0.209,2.46,0.521,4.914,0.875,7.358c0.969,6.693,2.336,13.297,4.87,19.596
			c1.42,3.53,3.158,6.897,6.171,9.39c3.438,2.846,7.288,2.905,10.798,0.194c2.783-2.149,4.377-5.099,5.487-8.346
			c0.301-0.88,0.787-1.134,1.727-1.267c2.527-0.358,5.152-0.612,7.501-1.521c5.883-2.275,7.688-7.806,4.37-13.182
			c-1.281-2.078-2.894-4.045-4.692-5.695C114.367,104.506,105.09,100.15,95.638,95.865z M59.686,69.631
			c-4.919-5.611-10.502-11.287-16.897-16.108c-4.006-3.02-8.225-5.646-13.276-6.607c-4.966-0.945-9.071,1.689-10.224,6.603
			c-0.725,3.089-0.435,6.136,0.539,9.094c0.424,1.288,0.062,1.912-0.899,2.746c-1.661,1.442-3.364,2.955-4.596,4.75
			c-3.828,5.577-2.044,11.29,4.172,13.937c3.929,1.673,8.101,2.027,12.296,2.055c7.7,0.051,15.259-1.189,22.777-2.714
			c2.396-0.485,2.382-0.528,2.539-3.083c0.024-0.399,0.054-0.816,0.185-1.189C57.377,76.055,58.478,73.005,59.686,69.631z
			 M78.094,73.043c-5.37-0.18-9.981,4.11-10.089,9.706c-0.1,5.179,3.708,9.834,9.723,10.116c5.301,0.249,9.985-4.188,10.093-9.743
			C87.931,77.401,83.414,73.158,78.094,73.043z"/>
	</g>
</g>
<g id="Ebene_5">
	<g>
		<path fill="none" d="M58.125,121.789l-6.518,1.849c0.76,0.513,1.529,0.804,2.298,0.884
			C55.346,124.38,56.773,123.471,58.125,121.789z"/>
		<path fill="none" d="M53.904,124.521c1.806,0.188,3.611-0.816,5.289-3.035l-1.069,0.303
			C56.773,123.471,55.346,124.38,53.904,124.521z"/>
		<path fill="none" d="M69.827,108.561c0.732,0.102,1.541,0.459,2.462,1.114c0.428,8.512,0.378,16.832-3.282,24.7
			c-3.911,8.407-10.076,13.842-19.694,14.138c0.197,0.002,0.394,0.018,0.591,0.014c9.755-0.213,15.986-5.675,19.929-14.151
			c3.66-7.868,3.71-16.188,3.283-24.7C71.833,108.762,70.767,108.425,69.827,108.561z"/>
		<path fill="none" d="M58.703,100.566c0.493,0.831,0.573,2.458,0.057,3.229c-2.696,4.017-5.664,7.854-8.487,11.787
			c-2.311,3.22-2.083,6.312,0.508,8.056c1.033,0.697,2.082,0.988,3.125,0.884c-0.769-0.08-1.538-0.371-2.298-0.884
			c-2.591-1.744-2.819-4.836-0.508-8.056c2.823-3.934,5.792-7.771,8.487-11.787c0.517-0.771,0.436-2.397-0.057-3.229
			c-0.42-0.711-1.999-1.388-2.775-1.151c-0.005,0.002-0.01,0.005-0.015,0.006C57.507,99.571,58.401,100.058,58.703,100.566z"/>
		<path fill="none" d="M69.007,134.375c3.66-7.868,3.709-16.188,3.282-24.7c-0.921-0.655-1.73-1.013-2.462-1.114
			c-1.19,0.176-2.176,1.112-3.135,2.612c-2.285,3.573-4.934,6.923-7.499,10.313c-1.678,2.219-3.483,3.224-5.289,3.035
			c-1.042,0.104-2.091-0.187-3.125-0.884c-2.591-1.744-2.818-4.836-0.508-8.056c2.823-3.934,5.792-7.771,8.487-11.787
			c0.517-0.771,0.437-2.397-0.057-3.229c-0.301-0.509-1.195-0.995-1.964-1.146c-7.883,2.407-15.398,5.557-21.331,11.537
			c-6.664,6.717-8.596,15.738-5.134,24.055c3.222,7.737,10.948,13.402,19.04,13.5C58.931,148.217,65.096,142.782,69.007,134.375z"/>
		<path fill="none" d="M34.088,73.023c-1.077,3.001,0.665,5.533,4.793,6.879c5.069,1.652,10.151,3.265,15.163,4.874
			c1.113,3.183,0.152,4.659-2.993,5.812c-5.384,1.975-10.783,3.319-16.299,3.362c5.804,0.094,11.472-1.29,17.125-3.362
			c3.145-1.152,4.107-2.629,2.993-5.812c-5.012-1.609-10.093-3.222-15.163-4.874c-4.128-1.346-5.869-3.878-4.793-6.879
			c0.72-2.006,2.173-3.073,4.289-3.184C36.633,69.69,34.899,70.765,34.088,73.023z"/>
		<path fill="none" d="M55.376,63.604c1.464,2.684,3.194,5.226,4.728,7.71c-0.79,2.401-1.922,3.368-3.353,3.509
			c1.827,0.176,3.243-0.663,4.179-3.509c-1.534-2.484-3.264-5.026-4.728-7.71c-3.329-6.103-8.571-10.006-14.808-12.675
			c-3.081-1.319-6.26-1.899-9.356-1.835c2.833,0.047,5.723,0.633,8.53,1.835C46.804,53.598,52.047,57.5,55.376,63.604z"/>
		<path fill="none" d="M11.787,63.798c-4.235,12.081,3.021,25.955,15.31,29.128c2.584,0.666,5.132,0.983,7.656,1.024
			c5.516-0.043,10.915-1.388,16.299-3.362c3.145-1.152,4.106-2.629,2.993-5.812c-5.012-1.609-10.094-3.222-15.163-4.874
			c-4.128-1.346-5.87-3.878-4.793-6.879c0.811-2.259,2.545-3.333,5.115-3.184c1.084-0.057,2.34,0.134,3.768,0.586
			c3.732,1.188,7.536,2.207,11.157,3.669c0.949,0.383,1.825,0.651,2.623,0.727c1.431-0.141,2.563-1.108,3.353-3.509
			c-1.534-2.484-3.264-5.026-4.728-7.71c-3.329-6.103-8.572-10.006-14.807-12.675c-2.808-1.202-5.697-1.788-8.53-1.835
			C23.136,49.28,14.929,54.835,11.787,63.798z"/>
		<path fill="none" d="M91.163,87.22c0.048-7.175-5.484-12.845-12.662-12.979c-0.191-0.003-0.377,0.013-0.567,0.017
			c7.05,0.267,12.45,5.876,12.404,12.962c-0.046,6.871-5.647,12.474-12.537,12.678c0.122,0.004,0.24,0.02,0.363,0.021
			C85.265,99.96,91.117,94.245,91.163,87.22z"/>
		<path fill="none" d="M90.338,87.22c0.046-7.086-5.354-12.696-12.404-12.962c-7.052,0.162-12.628,5.748-12.621,12.805
			c0.008,6.922,5.58,12.6,12.488,12.835C84.69,99.693,90.292,94.091,90.338,87.22z"/>
		<path fill="none" d="M72.422,47.947c-0.033,4.481-0.184,8.972,0.055,13.441c0.137,2.572-0.635,3.949-3.182,4.201
			c0.01,0.015,0.02,0.03,0.03,0.045c3.189-0.034,4.129-1.423,3.979-4.247c-0.239-4.469-0.088-8.96-0.055-13.441
			c0.026-3.577,1.778-5.82,4.568-6.021c-0.137-0.009-0.274-0.02-0.416-0.02C74.372,41.906,72.451,44.196,72.422,47.947z"/>
		<path fill="none" d="M96.762,39.993c-1.952,8.991-5.415,17.519-10.468,25.523c0.255,0.015,0.523,0.023,0.819,0.011
			c5.058-8.007,8.522-16.539,10.475-25.534c1.821-8.386-0.88-15.783-7.803-21.02c-3.794-2.87-7.85-4.185-11.976-4.04
			c3.84,0.047,7.61,1.361,11.149,4.04C95.882,24.21,98.582,31.607,96.762,39.993z"/>
		<path fill="none" d="M57.907,37.646c1.242,10.204,5.727,19.508,11.389,27.943c2.546-0.252,3.319-1.629,3.182-4.201
			c-0.239-4.469-0.088-8.96-0.055-13.441c0.028-3.75,1.949-6.041,4.979-6.041c0.142,0,0.278,0.011,0.416,0.02
			c0.135-0.009,0.271-0.02,0.411-0.02c3.021-0.001,4.972,2.279,5.021,6.057c0.059,4.481,0.174,8.971-0.044,13.442
			c-0.125,2.531,0.553,3.96,3.089,4.112c5.053-8.004,8.516-16.532,10.468-25.523c1.82-8.386-0.88-15.783-7.803-21.02
			c-3.539-2.678-7.31-3.992-11.149-4.04c-3.146,0.111-6.334,1.07-9.478,2.845C60.677,22.103,56.888,29.277,57.907,37.646z"/>
		<path fill="none" d="M112.852,70.38c-4.521,1.435-9.008,2.988-13.566,4.295c-0.079,0.022-0.167,0.036-0.256,0.048
			c0.394,0.049,0.78,0.039,1.082-0.048c4.559-1.307,9.045-2.86,13.565-4.295c1.002-0.317,1.923-0.497,2.766-0.543
			C115.394,69.778,114.192,69.954,112.852,70.38z"/>
		<path fill="none" d="M136.771,53.656c-4.154-3.217-8.919-4.684-13.87-4.519c4.654,0.018,9.12,1.481,13.043,4.519
			c7.248,5.613,10.183,14.86,7.537,23.753c-2.781,9.357-10.012,15.304-19.8,16.29c-1.38,0.139-2.714,0.212-4.02,0.226
			c1.57,0.017,3.173-0.058,4.847-0.226c9.787-0.985,17.018-6.933,19.799-16.29C146.952,68.516,144.018,59.269,136.771,53.656z"/>
		<path fill="none" d="M143.48,77.409c2.646-8.893-0.289-18.14-7.537-23.753c-3.923-3.038-8.389-4.501-13.043-4.519
			c-3.809,0.126-7.728,1.217-11.568,3.222c-7.689,4.015-11.554,10.937-15.24,18.069c-0.418,0.807,0.384,2.583,1.13,3.507
			c0.331,0.41,1.085,0.699,1.808,0.787c0.089-0.012,0.177-0.025,0.256-0.048c4.559-1.307,9.045-2.86,13.566-4.295
			c1.341-0.426,2.542-0.602,3.591-0.543c2.61-0.147,4.414,0.993,5.197,3.33c0.954,2.843-0.791,5.375-4.662,6.652
			c-4.056,1.337-8.071,2.861-12.213,3.849c-3.338,0.797-4.253,2.471-3.288,5.528c6.627,3.202,12.136,4.667,18.185,4.729
			c1.306-0.014,2.64-0.087,4.02-0.226C133.469,92.713,140.699,86.766,143.48,77.409z"/>
		<path fill="none" d="M99.667,99.467c-0.218-0.071-0.502-0.058-0.802,0.008c8.285,2.703,16.219,6.127,22.059,12.896
			c5.648,6.547,7.122,14.082,4.024,22.098c-3.145,8.134-9.381,13.059-18.16,13.895c-0.482,0.046-0.952,0.068-1.418,0.083
			c0.73,0.007,1.474-0.011,2.244-0.083c8.779-0.836,15.015-5.761,18.159-13.895c3.099-8.016,1.625-15.551-4.023-22.098
			C115.904,105.595,107.961,102.171,99.667,99.467z"/>
		<path fill="none" d="M88.977,111.185c2.378,3.655,5.082,7.105,7.717,10.592c1.503,1.99,3.308,2.91,5.084,2.734
			c-1.501-0.139-2.987-1.053-4.26-2.734c-2.633-3.486-5.337-6.937-7.715-10.592c-1.161-1.786-2.348-2.842-3.946-2.617
			C87.054,108.748,88.025,109.721,88.977,111.185z"/>
		<path fill="none" d="M124.948,134.468c3.098-8.016,1.624-15.551-4.024-22.098c-5.84-6.769-13.773-10.192-22.059-12.896
			c-0.733,0.159-1.588,0.648-1.962,1.151c-0.505,0.681-0.643,2.238-0.187,2.909c2.847,4.197,5.931,8.238,8.887,12.366
			c2.126,2.971,1.808,6.043-0.713,7.748c-1.001,0.677-2.062,0.956-3.113,0.861c-1.776,0.176-3.581-0.744-5.084-2.734
			c-2.635-3.486-5.339-6.937-7.717-10.592c-0.951-1.464-1.923-2.437-3.12-2.617c-0.757,0.104-1.607,0.494-2.593,1.236
			c0,3.306-0.031,6.6,0.008,9.894c0.074,6.373,1.724,12.376,5.021,17.808c3.954,6.518,9.49,10.857,17.078,10.94
			c0.466-0.015,0.936-0.037,1.418-0.083C115.567,147.526,121.804,142.602,124.948,134.468z"/>
		<path d="M150.181,54.172c-8.196-13.512-24.233-18.565-38.982-12.774c-0.973,0.381-1.924,0.814-2.691,1.142
			c-0.432-4.736-0.287-9.469-1.373-13.907C104.032,15.952,96.146,7.85,82.814,5.555c-0.336-0.057-0.639-0.294-0.956-0.447
			c-2.382,0-4.763,0-7.146,0c-4.975,2.072-10.558,3.317-14.804,6.381c-9.725,7.019-12.963,17.28-12.101,28.942
			c0.035,0.468,0.141,0.93,0.193,1.397c0.011,0.103-0.066,0.217-0.204,0.623c-2.824-0.888-5.61-2.046-8.513-2.63
			c-18.333-3.686-34.88,7.574-38.299,25.925c-0.105,0.566-0.389,1.101-0.591,1.649c0,2.359,0,4.718,0,7.077
			c0.919,3.14,1.538,6.407,2.813,9.398c4.354,10.215,11.964,16.739,23.032,19.098c0.572,0.123,1.121,0.348,2.077,0.65
			c-8.861,9.472-12.062,20.345-8.275,32.568c3.763,12.149,12.667,19.122,24.839,22.515h9.728c9.639-2.637,18.08-8.688,23.204-17.602
			c-0.138-0.235-0.281-0.465-0.417-0.705c-5.223,9.573-12.701,15.593-22.954,18.162c10.253-2.569,17.731-8.589,22.954-18.162
			c0.136,0.24,0.278,0.47,0.417,0.705c0.136-0.235,0.279-0.465,0.41-0.705c5.062,8.984,13.66,15.579,23.388,18.307h9.567
			c11.921-3.493,20.848-10.312,24.59-22.369c3.779-12.18,0.79-23.012-8.162-32.569c0.779-0.312,1.342-0.622,1.944-0.767
			c14.433-3.423,22.577-12.651,25.346-26.868c0.109-0.566,0.377-1.104,0.568-1.656c0-2.359,0-4.718,0-7.077
			C153.737,62.965,152.613,58.179,150.181,54.172z M67.506,17.779c3.419-1.931,6.89-2.887,10.304-2.845
			c4.126-0.146,8.182,1.169,11.976,4.04c6.923,5.237,9.624,12.634,7.803,21.02c-1.952,8.995-5.417,17.527-10.475,25.534
			c-0.296,0.012-0.564,0.004-0.819-0.011c-0.004,0.004-0.006,0.007-0.008,0.011c-3.217,0.12-4.045-1.336-3.907-4.123
			c0.219-4.471,0.104-8.961,0.045-13.442c-0.048-3.6-1.824-5.835-4.607-6.037c-2.79,0.201-4.542,2.444-4.568,6.021
			c-0.033,4.481-0.184,8.972,0.055,13.441c0.151,2.824-0.789,4.213-3.979,4.247c-0.01-0.015-0.02-0.03-0.03-0.045
			c-0.251,0.025-0.512,0.042-0.796,0.045c-5.676-8.447-10.174-17.767-11.419-27.989C56.062,29.277,59.85,22.103,67.506,17.779z
			 M26.271,92.926c-12.288-3.173-19.544-17.047-15.31-29.128c3.238-9.24,11.86-14.856,21.078-14.704
			c3.096-0.064,6.275,0.516,9.356,1.835c6.236,2.669,11.479,6.572,14.808,12.675c1.464,2.684,3.194,5.226,4.728,7.71
			c-0.936,2.847-2.353,3.686-4.179,3.509c-1.007,0.1-2.159-0.208-3.449-0.727c-3.621-1.462-7.425-2.481-11.158-3.669
			c-1.077-0.341-2.058-0.536-2.941-0.586c-2.116,0.11-3.569,1.177-4.289,3.184c-1.076,3.001,0.665,5.533,4.793,6.879
			c5.069,1.652,10.151,3.265,15.163,4.874c1.114,3.183,0.152,4.659-2.993,5.812c-5.652,2.072-11.321,3.456-17.125,3.362
			C31.96,93.971,29.137,93.665,26.271,92.926z M69.833,134.375c-3.943,8.477-10.173,13.938-19.929,14.151
			c-0.197,0.004-0.394-0.012-0.591-0.014c-0.08,0.002-0.155,0.01-0.235,0.014c-8.306,0.181-16.332-5.588-19.631-13.514
			c-3.462-8.316-1.529-17.338,5.134-24.055c5.937-5.984,13.457-9.134,21.346-11.543c0.22-0.065,0.507-0.055,0.812,0.006
			c0.005-0.001,0.01-0.004,0.015-0.006c0.777-0.236,2.355,0.44,2.775,1.151c0.493,0.831,0.574,2.458,0.057,3.229
			c-2.696,4.017-5.664,7.854-8.487,11.787c-2.311,3.22-2.083,6.312,0.508,8.056l6.518-1.849c0.081-0.101,0.163-0.196,0.243-0.303
			c2.565-3.391,5.214-6.74,7.499-10.313c1.173-1.834,2.385-2.826,3.961-2.612c0.939-0.136,2.006,0.201,3.289,1.114
			C73.543,118.187,73.493,126.507,69.833,134.375z M78.165,99.918c-0.123-0.001-0.241-0.017-0.363-0.021
			c-0.155,0.005-0.306,0.021-0.463,0.021c-7.076-0.043-12.843-5.811-12.852-12.855c-0.008-7.247,5.867-12.959,13.188-12.822
			c0.088,0.002,0.172,0.014,0.259,0.017c0.19-0.004,0.375-0.02,0.567-0.017c7.178,0.135,12.71,5.805,12.662,12.979
			C91.117,94.245,85.265,99.96,78.165,99.918z M125.773,134.468c-3.145,8.134-9.38,13.059-18.159,13.895
			c-0.771,0.072-1.514,0.09-2.244,0.083c-8.018,0.236-13.808-4.188-17.905-10.94c-3.296-5.432-4.944-11.435-5.021-17.808
			c-0.039-3.294-0.007-6.588-0.007-9.894c1.359-1.023,2.462-1.383,3.419-1.236c1.599-0.225,2.785,0.831,3.946,2.617
			c2.378,3.655,5.082,7.105,7.715,10.592c1.272,1.682,2.759,2.596,4.26,2.734c0.777-0.078,1.548-0.362,2.286-0.861
			c2.522-1.705,2.84-4.777,0.714-7.748c-2.956-4.128-6.04-8.169-8.888-12.366c-0.455-0.671-0.317-2.229,0.187-2.909
			c0.527-0.71,2.014-1.404,2.764-1.159c0.01,0.003,0.018,0.006,0.025,0.008c0.3-0.065,0.584-0.079,0.802-0.008
			c8.294,2.704,16.237,6.128,22.083,12.903C127.398,118.917,128.872,126.452,125.773,134.468z M144.307,77.409
			c-2.781,9.357-10.012,15.304-19.799,16.29c-1.674,0.168-3.276,0.242-4.847,0.226c-6.379,0.068-12.083-1.381-19.011-4.729
			c-0.965-3.058-0.05-4.731,3.288-5.528c4.143-0.988,8.157-2.512,12.212-3.849c3.871-1.277,5.616-3.809,4.663-6.652
			c-0.698-2.081-2.206-3.21-4.371-3.33c-0.843,0.047-1.764,0.226-2.766,0.543c-4.521,1.435-9.007,2.988-13.565,4.295
			c-0.302,0.087-0.688,0.097-1.082,0.048c-0.877,0.126-2.169-0.212-2.634-0.787c-0.747-0.923-1.548-2.7-1.131-3.507
			c3.688-7.132,7.552-14.055,15.241-18.069c4.12-2.151,8.329-3.236,12.395-3.222c4.951-0.165,9.716,1.301,13.87,4.519
			C144.018,59.269,146.952,68.516,144.307,77.409z"/>
		<path d="M30.273,135.013c-3.462-8.316-1.53-17.338,5.134-24.055c5.933-5.98,13.448-9.13,21.331-11.537
			c-0.304-0.061-0.591-0.071-0.812-0.006c-7.889,2.409-15.409,5.559-21.346,11.543c-6.664,6.717-8.596,15.738-5.134,24.055
			c3.3,7.926,11.326,13.694,19.631,13.514c0.08-0.004,0.155-0.012,0.235-0.014C41.221,148.415,33.495,142.75,30.273,135.013z"/>
		<path d="M66.692,111.173c0.959-1.5,1.945-2.437,3.135-2.612c-1.577-0.214-2.789,0.778-3.961,2.612
			c-2.284,3.573-4.934,6.923-7.499,10.313c-0.08,0.106-0.162,0.202-0.243,0.303l1.069-0.303
			C61.758,118.096,64.407,114.746,66.692,111.173z"/>
		<path d="M34.752,93.95c-2.523-0.041-5.072-0.358-7.656-1.024c-12.289-3.173-19.545-17.047-15.31-29.128
			c3.142-8.963,11.35-14.518,20.252-14.704c-9.217-0.152-17.839,5.464-21.078,14.704c-4.235,12.081,3.021,25.955,15.31,29.128
			C29.137,93.665,31.96,93.971,34.752,93.95z"/>
		<path d="M42.971,70.426c-1.428-0.453-2.683-0.643-3.768-0.586c0.883,0.051,1.864,0.245,2.941,0.586
			c3.733,1.188,7.537,2.207,11.158,3.669c1.29,0.52,2.442,0.827,3.449,0.727c-0.798-0.076-1.673-0.344-2.623-0.727
			C50.507,72.633,46.704,71.614,42.971,70.426z"/>
		<path d="M68.5,65.635c0.285-0.003,0.545-0.02,0.796-0.045c-5.662-8.435-10.147-17.74-11.389-27.943
			c-1.019-8.369,2.77-15.543,10.425-19.867c3.144-1.775,6.331-2.734,9.478-2.845c-3.414-0.042-6.884,0.914-10.304,2.845
			c-7.656,4.324-11.444,11.498-10.425,19.867C58.325,47.868,62.824,57.188,68.5,65.635z"/>
		<path d="M83.205,61.404c0.218-4.471,0.103-8.961,0.044-13.442c-0.05-3.778-2-6.058-5.021-6.057c-0.14,0-0.276,0.011-0.411,0.02
			c2.783,0.201,4.559,2.437,4.607,6.037c0.059,4.481,0.174,8.971-0.045,13.442c-0.138,2.787,0.69,4.243,3.907,4.123
			c0.002-0.004,0.004-0.007,0.008-0.011C83.758,65.364,83.08,63.936,83.205,61.404z"/>
		<path d="M104.891,123.649c2.521-1.705,2.839-4.777,0.713-7.748c-2.956-4.128-6.04-8.169-8.887-12.366
			c-0.456-0.671-0.318-2.229,0.187-2.909c0.374-0.503,1.229-0.992,1.962-1.151c-0.008-0.002-0.016-0.005-0.025-0.008
			c-0.75-0.245-2.236,0.449-2.764,1.159c-0.504,0.681-0.642,2.238-0.187,2.909c2.848,4.197,5.932,8.238,8.888,12.366
			c2.126,2.971,1.809,6.043-0.714,7.748c-0.738,0.499-1.509,0.783-2.286,0.861C102.829,124.605,103.89,124.326,104.891,123.649z"/>
		<path d="M88.292,137.505c-3.297-5.432-4.946-11.435-5.021-17.808c-0.039-3.294-0.008-6.588-0.008-9.894
			c0.985-0.742,1.836-1.132,2.593-1.236c-0.957-0.146-2.06,0.213-3.419,1.236c0,3.306-0.032,6.6,0.007,9.894
			c0.076,6.373,1.725,12.376,5.021,17.808c4.098,6.753,9.888,11.177,17.905,10.94C97.782,148.362,92.246,144.022,88.292,137.505z"/>
		<path d="M96.092,70.429c3.687-7.132,7.551-14.055,15.24-18.069c3.841-2.005,7.76-3.096,11.568-3.222
			c-4.065-0.014-8.274,1.071-12.395,3.222c-7.689,4.015-11.554,10.937-15.241,18.069c-0.417,0.807,0.384,2.583,1.131,3.507
			c0.465,0.575,1.757,0.914,2.634,0.787c-0.723-0.088-1.477-0.377-1.808-0.787C96.476,73.012,95.674,71.235,96.092,70.429z"/>
		<path d="M104.765,83.667c4.142-0.988,8.157-2.512,12.213-3.849c3.871-1.277,5.616-3.809,4.662-6.652
			c-0.783-2.336-2.587-3.477-5.197-3.33c2.165,0.12,3.673,1.249,4.371,3.33c0.953,2.843-0.792,5.375-4.663,6.652
			c-4.055,1.337-8.069,2.861-12.212,3.849c-3.338,0.797-4.253,2.471-3.288,5.528c6.928,3.348,12.632,4.797,19.011,4.729
			c-6.049-0.062-11.558-1.526-18.185-4.729C100.512,86.138,101.427,84.464,104.765,83.667z"/>
	</g>
</g>
</svg>
