<?xml version="1.0" encoding="utf-8"?>
<!-- Generator: Adobe Illustrator 16.2.0, SVG Export Plug-In . SVG Version: 6.00 Build 0)  -->
<!DOCTYPE svg PUBLIC "-//W3C//DTD SVG 1.1//EN" "http://www.w3.org/Graphics/SVG/1.1/DTD/svg11.dtd">
<svg version="1.1" id="Ebene_1" xmlns="http://www.w3.org/2000/svg" xmlns:xlink="http://www.w3.org/1999/xlink" x="0px" y="0px"
	 width="151.688px" height="161.466px" viewBox="0 0 151.688 161.466" enable-background="new 0 0 151.688 161.466"
	 xml:space="preserve">
<g>
	<path fill-rule="evenodd" clip-rule="evenodd" fill="#FFFFFF" d="M58.894,161.466c2.096-1.582,4.195-3.16,6.288-4.746
		c9.308-7.051,17.226-15.235,21.016-26.603c0.509-1.526,0.709-3.942-0.134-5.008c-6.839-8.643-10.548-18.571-13.179-29.309
		c-2.064,7.897-4.129,15.794-6.193,23.691c-0.293-0.065-0.586-0.131-0.88-0.196c1.441-11.613,2.883-23.226,4.323-34.839
		c-0.517-0.339-1.034-0.679-1.552-1.018c-5.548,5.591-11.61,10.768-16.53,16.866c-8.25,10.228-10.966,22.349-6.733,34.792
		c3.115,9.155,8.307,17.604,12.573,26.368 M106.842,103.84c-0.515,0.565-1.028,1.131-1.543,1.696
		c-8.49-6.556-16.981-13.11-26.32-20.32c1.256,37.757,24.521,54.291,60.988,49.545c-1.851-8.772-2.89-17.732-5.782-26.047
		c-2.059-5.915-6.467-11.064-10.165-16.316c-0.832-1.183-3.093-1.97-4.664-1.92c-8.692,0.276-17.376,0.867-26.608,1.381
		C97.266,95.7,102.054,99.771,106.842,103.84z M113.504,62.483c0.129,0.256,0.257,0.513,0.386,0.769
		c-10.398,5.716-20.797,11.433-31.825,17.495c33.61,12.809,58.632,1.192,69.623-35.737c-13.466-5.578-27.197-8.344-41.676-4.412
		c-2.467,0.67-3.904,1.82-4.442,5c-0.9,5.319-2.972,10.475-4.878,15.576c-0.917,2.452-2.584,4.624-4.56,8.046
		C102.814,66.629,108.16,64.557,113.504,62.483z M77.432,41.379c0.525,0.018,1.052,0.036,1.578,0.054c0,11.079,0,22.158,0,33.807
		C104.917,57.642,108.586,24.924,77.526,0c-9.728,9.045-17.691,19.205-20.689,32.562c-0.253,1.127-0.214,3.02,0.471,3.551
		c8.327,6.46,13.679,15.117,18.688,25.871c0.395-4.68,0.696-7.794,0.909-10.914C77.125,47.842,77.259,44.609,77.432,41.379z
		 M72.916,74.454c-1.651-10.237-7.521-21.951-13.872-28.664C47.319,33.401,21.474,28.774,6.46,36.534
		c-0.904,0.468-1.77,2.465-1.524,3.477c2.779,11.446,7.12,22.182,15.596,30.721c0.926,0.933,3.117,1.705,4.16,1.254
		c9.026-3.908,18.388-4.954,29.562-3.447c-5.652-3.869-10.045-6.878-14.439-9.886c0.143-0.218,0.286-0.436,0.429-0.653
		C50.859,63.346,61.475,68.692,72.916,74.454z M0,112.878c10.806,5.008,21.739,8.112,33.457,7.467
		c1.563-0.086,3.876-1.296,4.43-2.59c3.342-7.809,6.272-15.793,9.193-23.338c-1.683,0.476-4.518,1.276-6.734,1.903
		c8.546-5.564,17.457-11.365,27.14-17.668C35.957,66.635,12.325,78.027,0,112.878z"/>
	<path fill-rule="evenodd" clip-rule="evenodd" d="M57.894,161.466c-4.267-8.764-9.458-17.213-12.573-26.368
		c-4.233-12.443-1.517-24.564,6.733-34.792c4.919-6.099,10.982-11.275,16.53-16.866c0.518,0.339,1.035,0.679,1.552,1.018
		c-1.44,11.613-2.882,23.226-4.323,34.839c0.294,0.065,0.587,0.131,0.88,0.196c2.064-7.897,4.129-15.794,6.193-23.691
		c2.631,10.737,6.34,20.666,13.179,29.309c0.843,1.065,0.643,3.481,0.134,5.008c-3.79,11.367-11.708,19.552-21.016,26.603
		c-2.093,1.586-4.192,3.164-6.288,4.746C58.561,161.466,58.228,161.466,57.894,161.466z"/>
	<path fill-rule="evenodd" clip-rule="evenodd" d="M106.842,103.84c-4.788-4.069-9.576-8.14-14.095-11.981
		c9.232-0.514,17.916-1.104,26.608-1.381c1.571-0.05,3.832,0.737,4.664,1.92c3.698,5.252,8.106,10.401,10.165,16.316
		c2.893,8.314,3.932,17.274,5.782,26.047c-36.467,4.746-59.732-11.788-60.988-49.545c9.339,7.21,17.83,13.765,26.32,20.32
		C105.814,104.971,106.328,104.405,106.842,103.84z"/>
	<path fill-rule="evenodd" clip-rule="evenodd" d="M113.504,62.483c-5.345,2.073-10.69,4.146-17.372,6.736
		c1.976-3.422,3.643-5.594,4.56-8.046c1.906-5.102,3.978-10.257,4.878-15.576c0.538-3.18,1.976-4.33,4.442-5
		c14.479-3.932,28.21-1.166,41.676,4.412c-10.991,36.93-36.013,48.546-69.623,35.737c11.028-6.063,21.427-11.779,31.825-17.495
		C113.761,62.996,113.633,62.739,113.504,62.483z"/>
	<path fill-rule="evenodd" clip-rule="evenodd" d="M77.432,41.379c-0.173,3.23-0.307,6.463-0.527,9.69
		c-0.213,3.12-0.515,6.234-0.909,10.914c-5.009-10.754-10.361-19.411-18.688-25.871c-0.685-0.531-0.724-2.424-0.471-3.551
		C59.835,19.205,67.798,9.045,77.526,0c31.061,24.924,27.392,57.642,1.484,75.239c0-11.648,0-22.728,0-33.807
		C78.484,41.415,77.958,41.396,77.432,41.379z"/>
	<path fill-rule="evenodd" clip-rule="evenodd" d="M72.916,74.454c-11.44-5.762-22.056-11.108-32.671-16.455
		c-0.143,0.218-0.286,0.436-0.429,0.653c4.394,3.008,8.787,6.017,14.439,9.886c-11.174-1.507-20.536-0.461-29.562,3.447
		c-1.042,0.451-3.234-0.321-4.16-1.254C12.056,62.192,7.716,51.457,4.937,40.011c-0.246-1.012,0.62-3.009,1.524-3.477
		c15.013-7.76,40.859-3.133,52.583,9.256C65.395,52.503,71.264,64.217,72.916,74.454z"/>
	<path fill-rule="evenodd" clip-rule="evenodd" d="M0,112.878c12.325-34.851,35.957-46.243,67.485-34.226
		c-9.683,6.303-18.593,12.104-27.14,17.668c2.217-0.627,5.052-1.428,6.734-1.903c-2.921,7.545-5.852,15.529-9.193,23.338
		c-0.554,1.294-2.866,2.504-4.43,2.59C21.739,120.99,10.806,117.886,0,112.878z"/>
</g>
</svg>
