<?xml version="1.0" encoding="utf-8"?>
<!-- Generator: Adobe Illustrator 16.2.0, SVG Export Plug-In . SVG Version: 6.00 Build 0)  -->
<!DOCTYPE svg PUBLIC "-//W3C//DTD SVG 1.1//EN" "http://www.w3.org/Graphics/SVG/1.1/DTD/svg11.dtd">
<svg version="1.1" xmlns="http://www.w3.org/2000/svg" xmlns:xlink="http://www.w3.org/1999/xlink" x="0px" y="0px"
	 width="155.772px" height="161.466px" viewBox="0 0 155.772 161.466" enable-background="new 0 0 155.772 161.466"
	 xml:space="preserve">
<g id="Ebene_1" display="none">
	<g display="inline">
		<path fill-rule="evenodd" clip-rule="evenodd" fill="#FFFFFF" d="M62.979,161.466c2.096-1.582,4.195-3.16,6.288-4.746
			c9.308-7.051,17.226-15.235,21.016-26.603c0.509-1.526,0.709-3.942-0.134-5.008c-6.839-8.643-10.548-18.571-13.179-29.309
			c-2.064,7.897-4.129,15.794-6.193,23.691c-0.293-0.065-0.586-0.131-0.88-0.196c1.441-11.613,2.883-23.226,4.323-34.839
			c-0.517-0.339-1.034-0.679-1.552-1.018c-5.548,5.591-11.61,10.768-16.53,16.866c-8.25,10.228-10.966,22.349-6.733,34.792
			c3.115,9.155,8.307,17.604,12.573,26.368 M110.927,103.84c-0.515,0.565-1.028,1.131-1.543,1.696
			c-8.49-6.556-16.981-13.11-26.32-20.32c1.256,37.757,24.521,54.291,60.988,49.545c-1.851-8.772-2.89-17.732-5.782-26.047
			c-2.059-5.915-6.467-11.064-10.165-16.316c-0.832-1.183-3.093-1.97-4.664-1.92c-8.692,0.276-17.376,0.867-26.608,1.381
			C101.351,95.7,106.139,99.771,110.927,103.84z M117.589,62.483c0.129,0.256,0.257,0.513,0.386,0.769
			c-10.398,5.716-20.797,11.433-31.825,17.495c33.61,12.809,58.632,1.192,69.623-35.737c-13.466-5.578-27.197-8.344-41.676-4.412
			c-2.467,0.67-3.904,1.82-4.442,5c-0.9,5.319-2.972,10.475-4.878,15.576c-0.917,2.452-2.584,4.624-4.56,8.046
			C106.898,66.629,112.244,64.557,117.589,62.483z M81.517,41.379c0.525,0.018,1.052,0.036,1.578,0.054c0,11.079,0,22.158,0,33.807
			C109.002,57.642,112.671,24.924,81.61,0c-9.728,9.045-17.691,19.205-20.689,32.562c-0.253,1.127-0.214,3.02,0.471,3.551
			c8.327,6.46,13.679,15.117,18.688,25.871c0.395-4.68,0.696-7.794,0.909-10.914C81.21,47.842,81.344,44.609,81.517,41.379z
			 M77,74.454c-1.651-10.237-7.521-21.951-13.872-28.664c-11.724-12.389-37.57-17.016-52.583-9.256
			c-0.904,0.468-1.77,2.465-1.524,3.477c2.779,11.446,7.12,22.182,15.596,30.721c0.926,0.933,3.117,1.705,4.16,1.254
			c9.026-3.908,18.388-4.954,29.562-3.447c-5.652-3.869-10.045-6.878-14.439-9.886c0.143-0.218,0.286-0.436,0.429-0.653
			C54.944,63.346,65.56,68.692,77,74.454z M4.084,112.878c10.806,5.008,21.739,8.112,33.457,7.467
			c1.563-0.086,3.876-1.296,4.43-2.59c3.342-7.809,6.272-15.793,9.193-23.338c-1.683,0.476-4.518,1.276-6.734,1.903
			c8.546-5.564,17.457-11.365,27.14-17.668C40.041,66.635,16.409,78.027,4.084,112.878z"/>
		<path fill-rule="evenodd" clip-rule="evenodd" d="M61.979,161.466c-4.267-8.764-9.458-17.213-12.573-26.368
			c-4.233-12.443-1.517-24.564,6.733-34.792c4.919-6.099,10.982-11.275,16.53-16.866c0.518,0.339,1.035,0.679,1.552,1.018
			c-1.44,11.613-2.882,23.226-4.323,34.839c0.294,0.065,0.587,0.131,0.88,0.196c2.064-7.897,4.129-15.794,6.193-23.691
			c2.631,10.737,6.34,20.666,13.179,29.309c0.843,1.065,0.643,3.481,0.134,5.008c-3.79,11.367-11.708,19.552-21.016,26.603
			c-2.093,1.586-4.192,3.164-6.288,4.746C62.645,161.466,62.312,161.466,61.979,161.466z"/>
		<path fill-rule="evenodd" clip-rule="evenodd" d="M110.927,103.84c-4.788-4.069-9.576-8.14-14.095-11.981
			c9.232-0.514,17.916-1.104,26.608-1.381c1.571-0.05,3.832,0.737,4.664,1.92c3.698,5.252,8.106,10.401,10.165,16.316
			c2.893,8.314,3.932,17.274,5.782,26.047c-36.467,4.746-59.732-11.788-60.988-49.545c9.339,7.21,17.83,13.765,26.32,20.32
			C109.898,104.971,110.412,104.405,110.927,103.84z"/>
		<path fill-rule="evenodd" clip-rule="evenodd" d="M117.589,62.483c-5.345,2.073-10.69,4.146-17.372,6.736
			c1.976-3.422,3.643-5.594,4.56-8.046c1.906-5.102,3.978-10.257,4.878-15.576c0.538-3.18,1.976-4.33,4.442-5
			c14.479-3.932,28.21-1.166,41.676,4.412c-10.991,36.93-36.013,48.546-69.623,35.737c11.028-6.063,21.427-11.779,31.825-17.495
			C117.846,62.996,117.718,62.739,117.589,62.483z"/>
		<path fill-rule="evenodd" clip-rule="evenodd" d="M81.517,41.379c-0.173,3.23-0.307,6.463-0.527,9.69
			c-0.213,3.12-0.515,6.234-0.909,10.914c-5.009-10.754-10.361-19.411-18.688-25.871c-0.685-0.531-0.724-2.424-0.471-3.551
			C63.919,19.205,71.883,9.045,81.61,0c31.061,24.924,27.392,57.642,1.484,75.239c0-11.648,0-22.728,0-33.807
			C82.568,41.415,82.042,41.396,81.517,41.379z"/>
		<path fill-rule="evenodd" clip-rule="evenodd" d="M77,74.454c-11.44-5.762-22.056-11.108-32.671-16.455
			c-0.143,0.218-0.286,0.436-0.429,0.653c4.394,3.008,8.787,6.017,14.439,9.886c-11.174-1.507-20.536-0.461-29.562,3.447
			c-1.042,0.451-3.234-0.321-4.16-1.254C16.141,62.192,11.8,51.457,9.021,40.011c-0.246-1.012,0.62-3.009,1.524-3.477
			c15.013-7.76,40.859-3.133,52.583,9.256C69.479,52.503,75.349,64.217,77,74.454z"/>
		<path fill-rule="evenodd" clip-rule="evenodd" d="M4.084,112.878c12.325-34.851,35.957-46.243,67.485-34.226
			c-9.683,6.303-18.593,12.104-27.14,17.668c2.217-0.627,5.052-1.428,6.734-1.903c-2.921,7.545-5.852,15.529-9.193,23.338
			c-0.554,1.294-2.866,2.504-4.43,2.59C25.824,120.99,14.891,117.886,4.084,112.878z"/>
	</g>
</g>
<g id="Ebene_2">
	<g>
		<path fill="none" d="M76.686,51.733c0.904,0.038,1.808,0.075,2.712,0.112c2.816-9.974,6.127-19.844,8.24-29.965
			c1.059-5.071-4.655-9.69-10.002-9.489c-5.583,0.211-10.564,5.302-9.271,10.72C70.671,32.765,73.864,42.204,76.686,51.733z"/>
		<path fill="none" d="M125.955,46.309c4.471-2.858,4.205-9.824,0.521-13.704c-3.819-4.022-11.089-4.466-14.066,0.163
			c-5.481,8.52-10.008,17.655-14.932,26.533c0.658,0.647,1.317,1.294,1.977,1.941C108.32,56.315,117.426,51.763,125.955,46.309z"/>
		<path fill="none" d="M29.472,115.752c-4.307,2.877-3.353,10.111,0.65,13.676c4.144,3.69,11.102,3.481,14.052-1.32
			c5.155-8.389,9.531-17.256,14.233-25.922c-0.608-0.687-1.216-1.372-1.825-2.058C47.504,105.272,38.126,109.971,29.472,115.752z"/>
		<path fill="none" d="M58.499,59.279c-4.92-8.875-9.461-17.992-14.916-26.526c-2.85-4.459-9.868-4.172-13.718-0.487
			c-4.017,3.845-4.451,11.095,0.181,14.067c8.524,5.471,17.661,9.986,26.543,14.9C57.226,60.582,57.862,59.931,58.499,59.279z"/>
		<path fill="none" d="M18.828,71.037c-5.235-0.496-9.534,5.068-9.138,10.408c0.4,5.401,5.208,9.805,10.563,8.982
			c4.411-0.678,8.732-2.084,13.013-3.423c5.301-1.658,10.52-3.579,15.773-5.387c-0.018-0.553-0.036-1.106-0.054-1.659
			C39.127,76.363,29.429,72.043,18.828,71.037z"/>
		<path fill="none" d="M99.021,100.647c-0.468,0.445-0.935,0.891-1.403,1.337c4.526,8.485,8.938,17.035,13.629,25.429
			c2.207,3.947,6.372,5.592,10.242,3.979c2.947-1.227,5.957-4.246,7.18-7.196c1.605-3.878-0.081-8.009-4.002-10.243
			c-6.461-3.683-13.093-7.069-19.68-10.527C103.046,102.407,101.012,101.568,99.021,100.647z"/>
		<path fill="none" d="M136.83,71.092c-10.112,2.121-19.976,5.433-29.941,8.252c0.043,0.902,0.086,1.805,0.129,2.707
			c9.53,2.821,18.971,6.018,28.625,8.317c5.421,1.291,10.5-3.704,10.697-9.294C146.53,75.727,141.901,70.029,136.83,71.092z"/>
		<path fill="none" d="M79.301,109.718c-0.874-0.022-1.748-0.045-2.623-0.066c-2.843,9.809-6.147,19.516-8.341,29.468
			c-1.167,5.293,4.525,10.187,10.063,9.953c5.586-0.234,10.531-5.332,9.23-10.757L79.301,109.718z"/>
		<path fill="none" d="M77.91,61.037c-10.591,0.086-19.837,9.477-19.604,19.91c0.234,10.479,9.113,19.332,19.539,19.479
			c10.499,0.148,19.818-9.084,19.849-19.662C97.724,70.228,88.422,60.952,77.91,61.037z"/>
		<path d="M127.318,63.083c-7.188,2.434-14.47,4.592-22.26,5.889c1.25-0.73,2.475-1.509,3.755-2.184
			c6.617-3.486,13.382-6.714,19.84-10.473c7.917-4.608,11.251-12.178,9.704-20.66c-1.395-7.636-7.629-13.876-15.262-15.275
			c-8.488-1.557-16.047,1.773-20.67,9.681c-3.687,6.307-6.865,12.912-10.274,19.382c-0.747,1.416-1.519,2.819-3.237,3.882
			c0.246-1.13,0.406-2.288,0.754-3.387c1.957-6.178,4.215-12.272,5.896-18.522C99.785,15.728,95.912,8.295,81,2.732c-2,0-4,0-6,0
			C60.099,8.291,56.216,15.708,60.436,31.41c1.967,7.321,4.503,14.49,5.74,22.283c-0.776-1.416-1.571-2.822-2.325-4.25
			c-3.413-6.468-6.589-13.074-10.276-19.381c-4.622-7.908-12.181-11.239-20.668-9.684c-7.634,1.399-13.87,7.64-15.263,15.276
			c-1.549,8.49,1.757,15.964,9.715,20.649c6.151,3.622,12.605,6.732,18.928,10.063c1.553,0.818,3.121,1.61,4.682,2.414
			c-0.15,0.399-0.301,0.8-0.452,1.199c-1.425-0.422-2.857-0.821-4.273-1.271c-5.86-1.86-11.75-3.636-17.565-5.626
			C15.925,58.719,3.99,63.036,0,77.732c0,2,0,4,0,6c3.902,14.552,15.863,19.026,28.688,14.652
			c7.181-2.449,14.468-4.586,22.263-5.842c-1.407,0.778-2.802,1.579-4.223,2.331c-6.463,3.417-13.07,6.588-19.368,10.287
			c-7.962,4.677-11.266,12.155-9.718,20.645c1.394,7.644,7.586,13.841,15.267,15.28c8.43,1.579,16.027-1.778,20.654-9.693
			c3.687-6.307,6.873-12.906,10.287-19.373c0.744-1.41,1.512-2.808,3.341-3.824c-0.349,1.267-0.657,2.546-1.053,3.797
			c-1.905,6.02-4.081,11.966-5.707,18.06c-4.185,15.689-0.326,23.103,14.569,28.681c2,0,4,0,6,0
			c14.897-5.591,18.789-13.037,14.563-28.687c-1.977-7.317-4.504-14.486-5.785-22.268c0.727,1.26,1.494,2.498,2.175,3.782
			c3.58,6.754,6.887,13.669,10.771,20.243c4.506,7.628,12.063,10.819,20.369,9.282c7.654-1.417,13.871-7.639,15.266-15.276
			c1.521-8.338-1.674-15.869-9.288-20.377c-6.429-3.807-13.182-7.063-19.789-10.566c-1.407-0.746-2.808-1.506-3.842-3.314
			c1.6,0.438,3.216,0.822,4.795,1.322c5.703,1.806,11.426,3.556,17.083,5.497c12.731,4.371,24.656,0.083,28.684-14.639c0-2,0-4,0-6
			C151.977,63.084,140.193,58.725,127.318,63.083z M33.266,87.005c-4.281,1.339-8.603,2.745-13.013,3.423
			c-5.355,0.822-10.163-3.581-10.563-8.982c-0.396-5.34,3.903-10.904,9.138-10.408c10.601,1.006,20.299,5.326,30.158,8.922
			c0.018,0.553,0.036,1.106,0.054,1.659C43.785,83.426,38.566,85.347,33.266,87.005z M112.41,32.768
			c2.978-4.629,10.247-4.186,14.066-0.163c3.684,3.88,3.949,10.846-0.521,13.704c-8.529,5.454-17.635,10.007-26.5,14.934
			c-0.659-0.647-1.318-1.294-1.977-1.941C102.402,50.423,106.929,41.287,112.41,32.768z M77.637,12.392
			c5.347-0.201,11.061,4.418,10.002,9.489c-2.113,10.121-5.424,19.991-8.24,29.965c-0.904-0.037-1.809-0.074-2.712-0.112
			c-2.822-9.529-6.015-18.969-8.32-28.622C67.072,17.693,72.054,12.603,77.637,12.392z M30.046,46.333
			c-4.632-2.973-4.198-10.223-0.181-14.067c3.85-3.685,10.869-3.972,13.718,0.487c5.454,8.534,9.995,17.651,14.916,26.526
			c-0.637,0.651-1.273,1.303-1.91,1.954C47.707,56.319,38.57,51.804,30.046,46.333z M44.174,128.107
			c-2.951,4.802-9.909,5.011-14.052,1.32c-4.002-3.564-4.957-10.799-0.65-13.676c8.654-5.781,18.032-10.479,27.111-15.624
			c0.608,0.686,1.216,1.371,1.825,2.058C53.706,110.852,49.33,119.719,44.174,128.107z M78.4,149.072
			c-5.539,0.233-11.23-4.66-10.063-9.953c2.193-9.952,5.498-19.659,8.341-29.468c0.875,0.021,1.749,0.044,2.623,0.066
			c2.824,9.521,6.017,18.954,8.33,28.598C88.932,143.74,83.986,148.838,78.4,149.072z M77.845,100.426
			c-10.425-0.146-19.305-8.999-19.539-19.479c-0.233-10.434,9.013-19.824,19.604-19.91c10.512-0.085,19.813,9.19,19.783,19.727
			C97.663,91.342,88.344,100.574,77.845,100.426z M124.666,113.953c3.921,2.234,5.607,6.365,4.002,10.243
			c-1.223,2.95-4.232,5.97-7.18,7.196c-3.87,1.612-8.035-0.032-10.242-3.979c-4.691-8.394-9.103-16.943-13.629-25.429
			c0.469-0.446,0.936-0.892,1.403-1.337c1.991,0.921,4.025,1.76,5.966,2.778C111.573,106.884,118.205,110.271,124.666,113.953z
			 M135.643,90.368c-9.654-2.3-19.095-5.496-28.625-8.317c-0.043-0.902-0.086-1.805-0.129-2.707
			c9.966-2.819,19.829-6.131,29.941-8.252c5.071-1.063,9.7,4.635,9.51,9.982C146.143,86.664,141.063,91.659,135.643,90.368z"/>
		<path d="M79.301,109.718l8.33,28.598C85.317,128.672,82.125,119.238,79.301,109.718z"/>
	</g>
</g>
</svg>
